<?xml version="1.0" standalone="no"?>
<!DOCTYPE svg PUBLIC "-//W3C//DTD SVG 20010904//EN" "http://www.w3.org/TR/2001/REC-SVG-20010904/DTD/svg10.dtd">
<svg xmlns="http://www.w3.org/2000/svg" version="1.0" width="900.000000pt" height="902.000000pt" viewBox="0 0 900.000000 902.000000" preserveAspectRatio="xMidYMid meet">
<metadata>
Created by potrace 1.16, written by Peter Selinger 2001-2019
<meta name="Producer" content="Online-Convert"/></metadata>
<g transform="translate(0.000000,902.000000) scale(0.100000,-0.100000)" fill="#000000" stroke="none">
<path d="M4100 9000 c-36 -6 -135 -19 -220 -31 -986 -132 -1901 -596 -2610 -1326 -558 -573 -939 -1254 -1135 -2028 -90 -354 -122 -591 -131 -950 -19 -721 93 -1324 356 -1930 585 -1343 1731 -2293 3170 -2629 245 -57 504 -85 855 -93 731 -16 1315 98 1945 380 188 84 246 113 404 204 350 201 670 447 960 739 468 470 820 1028 1053 1669 121 332 191 650 234 1060 20 185 17 744 -5 930 -58 504 -153 866 -341 1300 -469 1080 -1327 1925 -2410 2372 -414 171 -904 294 -1285 323 -197 15 -760 21 -840 10z m858 -714 c564 -74 1082 -260 1570 -564 953 -593 1606 -1623 1749 -2757 25 -200 25 -713 0 -910 -110 -852 -488 -1627 -1087 -2225 -295 -295 -537 -476 -890 -667 -563 -303 -1151 -453 -1785 -454 -466 -2 -853 64 -1279 216 -1277 455 -2201 1527 -2470 2865 -42 208 -58 369 -63 650 -8 387 22 648 113 1006 220 867 756 1644 1495 2170 150 107 253 171 402 249 438 230 942 381 1436 430 181 18 641 13 809 -9z"/>
<path d="M2849 6240 c-104 -6 -135 -11 -174 -31 -73 -37 -148 -116 -192 -205 -35 -71 -38 -85 -38 -159 0 -73 4 -88 37 -156 43 -86 128 -178 198 -211 41 -21 66 -23 300 -30 298 -8 2782 -7 3075 1 184 6 204 8 249 30 72 36 148 117 193 207 35 71 38 85 38 159 0 74 -3 88 -38 158 -43 86 -108 159 -182 202 -45 27 -60 30 -175 36 -171 9 -3134 8 -3291 -1z"/>
<path d="M2840 4920 c-93 -5 -126 -11 -163 -30 -72 -36 -159 -127 -198 -206 -31 -62 -34 -77 -34 -154 0 -77 3 -92 34 -155 39 -80 120 -166 196 -211 l50 -29 220 -6 c289 -7 2761 -7 3070 0 234 6 241 7 290 33 74 38 150 121 193 207 33 68 37 83 37 155 0 72 -4 89 -36 156 -48 101 -113 171 -197 212 l-67 33 -1640 1 c-902 1 -1692 -2 -1755 -6z"/>
<path d="M3040 3590 c-288 -6 -297 -7 -350 -32 -85 -38 -163 -117 -207 -206 -35 -70 -38 -83 -38 -162 0 -76 3 -92 33 -152 39 -80 126 -170 202 -212 l53 -29 526 -8 c571 -9 1958 -9 2591 1 390 6 397 7 445 30 73 35 165 131 206 215 30 63 34 79 34 155 0 76 -4 92 -33 152 -43 89 -128 180 -200 215 l-56 27 -321 6 c-424 8 -2510 8 -2885 0z"/>
</g>
</svg>
